<svg xmlns="http://www.w3.org/2000/svg" viewBox="0 0 1584 396">
  <!-- Definitions for gradients and filters -->
  <defs>
    <!-- Enhanced gradient with more colors -->
    <linearGradient id="bgGradient" x1="0%" y1="0%" x2="100%" y2="100%">
      <stop offset="0%" style="stop-color:#1a237e" />
      <stop offset="50%" style="stop-color:#311b92" />
      <stop offset="100%" style="stop-color:#4a148c" />
    </linearGradient>
    
    <!-- Enhanced blur filter -->
    <filter id="blur">
      <feGaussianBlur stdDeviation="1.5" />
    </filter>
    
    <!-- Animation for tech words -->
    <animate
      attributeName="opacity"
      values="0.2;0.4;0.2"
      dur="3s"
      repeatCount="indefinite" />
  </defs>

  <!-- Background with enhanced gradient -->
  <rect width="100%" height="100%" fill="url(#bgGradient)" />

  <!-- Expanded tech words with more backend focus -->
  <g fill="#ffffff30" font-family="monospace" filter="url(#blur)">
    <text x="100" y="80">ASP.NET Core</text>
    <text x="300" y="120">Spring Boot</text>
    <text x="500" y="160">Django</text>
    <text x="700" y="100">Node.js</text>
    <text x="900" y="140">MongoDB</text>
    <text x="1100" y="90">Express</text>
    <text x="200" y="200">PostgreSQL</text>
    <text x="400" y="180">Docker</text>
    <text x="600" y="220">Kubernetes</text>
    <text x="800" y="160">Redis</text>
    <text x="1000" y="200">GraphQL</text>
    <text x="150" y="240">RabbitMQ</text>
    <text x="350" y="260">gRPC</text>
    <text x="550" y="280">Microservices</text>
    <text x="750" y="240">CI/CD</text>
    <text x="950" y="260">REST APIs</text>
  </g>

  <!-- Main content with enhanced styling -->
  <g>
    <text x="792" y="150" text-anchor="middle" font-size="48" font-weight="bold" font-family="Arial" fill="#ffffff">
      Idris Bouargoub
      <animate
        attributeName="fill-opacity"
        values="0.9;1;0.9"
        dur="2s"
        repeatCount="indefinite" />
    </text>
    <text x="792" y="200" text-anchor="middle" font-size="28" font-family="Arial" fill="#e0e0e0">
      Backend Developer, Computer Science Student
    </text>
  </g>

  <!-- Social Icons with hover effect -->
  <g transform="translate(642, 250)" fill="#ffffff">
    <!-- GitHub -->
    <a href="https://github.com/yourusername" target="_blank">
      <path d="M12 0c-6.626 0-12 5.373-12 12 0 5.302 3.438 9.8 8.207 11.387.599.111.793-.261.793-.577v-2.234c-3.338.726-4.033-1.416-4.033-1.416-.546-1.387-1.333-1.756-1.333-1.756-1.089-.745.083-.729.083-.729 1.205.084 1.839 1.237 1.839 1.237 1.07 1.834 2.807 1.304 3.492.997.107-.775.418-1.305.762-1.604-2.665-.305-5.467-1.334-5.467-5.931 0-1.311.469-2.381 1.236-3.221-.124-.303-.535-1.524.117-3.176 0 0 1.008-.322 3.301 1.23.957-.266 1.983-.399 3.003-.404 1.02.005 2.047.138 3.006.404 2.291-1.552 3.297-1.23 3.297-1.23.653 1.653.242 2.874.118 3.176.77.84 1.235 1.911 1.235 3.221 0 4.609-2.807 5.624-5.479 5.921.43.372.823 1.102.823 2.222v3.293c0 .319.192.694.801.576 4.765-1.589 8.199-6.086 8.199-11.386 0-6.627-5.373-12-12-12z" fill="#ffffff" transform="scale(2)" />
    </a>
    <!-- LinkedIn -->
    <a href="https://linkedin.com/in/yourusername" target="_blank">
      <path d="M19 0h-14c-2.761 0-5 2.239-5 5v14c0 2.761 2.239 5 5 5h14c2.762 0 5-2.239 5-5v-14c0-2.761-2.238-5-5-5zm-11 19h-3v-11h3v11zm-1.5-12.268c-.966 0-1.75-.79-1.75-1.764s.784-1.764 1.75-1.764 1.75.79 1.75 1.764-.783 1.764-1.75 1.764zm13.5 12.268h-3v-5.604c0-3.368-4-3.113-4 0v5.604h-3v-11h3v1.765c1.396-2.586 7-2.777 7 2.476v6.759z" fill="#ffffff" transform="translate(100, 0) scale(2)" />
    </a>
    <!-- Stack Overflow -->
    <a href="https://stackoverflow.com/users/yourid" target="_blank">
      <path d="M15 21h-10v-2h10v2zm6-11.665l-1.621-9.335-1.993.346 1.62 9.335 1.994-.346zm-5.964 6.937l-9.746-.975-.186 2.016 9.755.879.177-1.92zm.538-2.587l-9.276-2.608-.526 1.954 9.306 2.5.496-1.846zm1.204-2.413l-8.297-4.864-1.029 1.743 8.298 4.865 1.028-1.744zm1.866-1.467l-5.339-7.829-1.672 1.14 5.339 7.829 1.672-1.14zm-2.644 4.195v8h-12v-8h-2v10h16v-10h-2z" fill="#ffffff" transform="translate(200, 0) scale(2)" />
    </a>
  </g>

  <!-- Add subtle particles in background -->
  <g fill="#ffffff10">
    <circle cx="200" cy="100" r="2">
      <animate
        attributeName="opacity"
        values="0.1;0.5;0.1"
        dur="3s"
        repeatCount="indefinite" />
    </circle>
    <circle cx="1200" cy="300" r="2">
      <animate
        attributeName="opacity"
        values="0.1;0.5;0.1"
        dur="4s"
        repeatCount="indefinite" />
    </circle>
    <circle cx="800" cy="50" r="2">
      <animate
        attributeName="opacity"
        values="0.1;0.5;0.1"
        dur="5s"
        repeatCount="indefinite" />
    </circle>
  </g>
</svg>